<svg version="1.1" xmlns="http://www.w3.org/2000/svg" xmlns:xlink="http://www.w3.org/1999/xlink" x="0px" y="0px" viewBox="0 0 512.7 257" style="enable-background:new 0 0 512.7 257;" xml:space="preserve">
<style type="text/css">
    .st0{clip-path:url(#SVGID_2_);}
	.st1{fill:none;stroke:#000;stroke-width:9;stroke-linecap:round;stroke-linejoin:round;stroke-miterlimit:10;}

    svg {

    	max-width: 500px;
    	margin: 0 auto;
    }

    @keyframes offset {

    	100% {

    		stroke-dashoffset: 0;
    	}
    }

    .feat polyline:nth-of-type(1) {

    	stroke-dasharray: 560;
    	stroke-dashoffset: 560;
    	animation: offset .56s linear forwards;
    }

    .feat polyline:nth-of-type(2) {

    	stroke-dasharray: 90;
    	stroke-dashoffset: 90;
    	animation: offset .2s .5s linear forwards;
    }

    .feat polyline:nth-of-type(3) {

    	stroke-dasharray: 430;
    	stroke-dashoffset: 430;
    	animation: offset .65s .75s linear forwards;
    }

    .feat polyline:nth-of-type(4) {

    	stroke-dasharray: 500;
    	stroke-dashoffset: 500;
    	animation: offset .75s 1.4s linear forwards;
    }

    @keyframes fade_in {

    	100% {

    		opacity: 1;
    	}
    }

    .dot {

    	opacity: 0;
    	animation: fade_in .1s 2.4s linear forwards;
    }

    circle {

    	opacity: 0;
    	animation: fade_in .1s 1.3s linear forwards;
    }
</style>
<g>
    <g>
		<defs>
			<path id="SVGID_1_" d="M207.7,38.4c3.4-0.2,6.9-0.6,10.3-1c1.7-0.2,3.4-0.4,5.2-0.6c1.4-0.1,2.5-0.2,3.8,0c1.4,0.3,2.5,1.6,2.9,2.9
			c1.9,6.5-10,5.9-13.8,6.3c-15.2,1.1-30.3,3.5-45.2,6.7c-14.6,4.3-29.1,9-43,15.1c-0.6,6.1-0.6,12.2-0.7,18.3
			c-0.3,11.5-1.5,22.9-1.9,34.3c5.7-1.1,11.4-2.7,17.3-3c3.1-0.4,4.9,3.8,2.9,5.9c-1.7,1.4-3.9,1.7-6,2.1c-5,0.9-10,1.9-14.9,3.3
			c-0.6,0.2-0.4,8.8-0.5,9.8c-0.1,3.5-0.1,7-0.3,10.5c-0.8,13.6-0.2,27.1-0.9,40.6c-0.1,2.8-0.8,5.6-1.7,8.3c-0.4,1.3-0.6,2.1-2,2.4
			c-5.7,1.3-5.3-6.6-4.9-9.9c1.4-14.3,0.6-28.8-1.6-43c-0.6-4.9-1.3-9.8-2.8-14.6c-7.5,2.7-15.2,4.7-22.8,7.2
			c-3.8,1-7.5,2.8-11.5,2.7c-3.9-0.9-3.3-7.1,0.4-7.8c11-2.8,21.8-6.4,32.6-9.9c-2.9-11.4-6.9-22.7-13.1-32.7
			c-1.8-2.7-3.8-5.3-5.9-7.8c-8.4,3.9-17.1,7.2-26,9.9c-7.3,2-15.2,3.5-22.6,1.3c-4.3-1.2-7.9-4.9-8.5-9.4
			c-1.4-6.1,1.2-12.3,5.2-16.9c9.3-9.3,24-10.8,35.9-6.2c7.3,2.2,12.8,7.5,18.8,11.9c6.5-3.2,13.1-6.3,19.9-9c2.3-1,4.7-1.8,6.6-3.5
			c0.8-0.7,0.2-1.9,0.3-2.9c0.1-1.2,1-2.1,2-2.6c0.5-0.2,1.9-0.5,2.4-0.4c2.6,0.6,3.7,1.9,6.4,1.4c2.5-0.5,4.8-1.7,7.2-2.7
			c3.9-1.5,7.8-2.9,11.8-4.3c7.6-2.7,15-5.5,22.9-7.4c8.2-1.9,16.5-3.6,24.8-4.7C200.5,39,204.1,38.6,207.7,38.4z M52.9,70
			c-6.2,1.7-12.5,6.8-12.6,13.7c-0.2,3.1,2.8,4.8,5.5,5.2c4.9,0.7,9.9,0.1,14.6-1.4c8-2.5,16-5,23.5-8.9
			C75.5,71.4,63.8,66.7,52.9,70z M97.7,81.2c1.9,3.6,4.1,6.9,6.4,10.3c4.5,7.7,7.8,16.3,10.5,24.8c0.8,2.6,1,5.3,2.4,7.7
			c1-9.4,1.4-18.8,1.9-28.2c0.4-8.1,1.2-16.2,0.7-24.3c0,0.4-9.8,4.4-10.8,4.9C105.2,78.2,101.5,79.9,97.7,81.2zM359.2,50.3c4.8-3.2,11.4-3.8,16.2-0.3c5.7,4.1,6.5,11.9,4.6,18.3c-3,13-10.9,23.9-17.9,34.9
			c-7.1,10.1-14.8,19.8-23.1,28.9c-1.3,1.7-3.4,3.2-3.1,5.6c0.2,9.5-0.4,19.4,3.6,28.3c1.1,2.7,4.4,3.7,7.1,3
			c8.1-1.6,14.3-7.7,19.9-13.4c8.8-9.8,14.9-21.6,20.7-33.4c1.7-3.5,6.3-4.2,9.4-2.3c1.6,1,2.7,2.6,2.9,4.5c0.3,3-2.2,5-4,7.1
			c10.6,0.2,20.7-4.3,30.1-8.6c2.4-0.1,3.4,2.5,4.9,4c0.9-1.3,1.8-2.5,2.4-3.9c3.7-0.4,6.9,1.7,10.2,3.1c4.7,2,10.6,2.3,15.5,1.8
			c3.5-0.3,5.9-1.1,9.4-1.8c3.2-0.6,6.9-2.6,10.2-1.9c2.8,0.9,2.3,5,0,6.2c-10,5.2-20.7,6.7-31.7,4.7c-0.8-0.2-10.2-2-10.1-2.3
			c-0.6,4.3-1.3,9-4.3,12.4c-1.8,2.1-5.3,1.8-7-0.3c-2.3-2.8-2.1-7.8-2.6-11.2c0.1,0.9-14.7,4.6-16.4,5c-5.9,1.4-11.8,1.3-17.5-0.7
			c-6.3,13-15,24.4-26.9,32.8c-4.8,3.4-10.6,6.2-16.5,6.2c-6.4,0.1-12.3-4.4-13.9-10.7c-2.3-7.7-3-15.8-3-23.9
			c-3.5-0.4-7.5-2-8.4-5.8c-2.6-6.8,1.8-15.5,9.3-16.3c1.2-15.5,4.5-30.9,11.1-45.1C344.8,65.8,350.4,56.2,359.2,50.3z M363.8,56.9
			c-6.2,4.2-10.7,10.4-14,17c-8,14.9-12.1,31.8-13,48.6c3.4-4.5,7.4-8.5,10.6-13.2c8.9-12.1,18.1-24.3,23.4-38.4
			c1.2-3.1,2.4-6.5,2.2-9.9C372.7,55.9,368,54.2,363.8,56.9z M327.8,129.9c-1.6,0-1.8,2.7-0.1,2.8
			C329.2,132.7,329.4,129.9,327.8,129.9zM261.1,108.1c2.5-1,6.2,0.6,5.9,3.6c-0.2,3.3-4.3,5.6-7,3.7c-2.2-1.6-2-5.2,0.2-6.8C260.5,108.4,260.8,108.2,261.1,108.1zM161.7,125.6c1.5-1.9,2.6-4.4,5-5.3c2.7-0.6,5.4,1.5,6,4.1c1.1,4.4,1.3,8.9,2,13.4c0-0.2,8.7-3.4,9.3-3.7
			c4.2-1.7,8.4-3.8,12.7-5.3c2.8-1,6.3-4.1,8.8-5.5c3.4-2,9.1-0.7,11.6,2.9c2.1,2.5,4,5.5,7.2,6.8c4.9,2.3,10.4,1.1,15.3-0.5
			c6.5-2.3,13.3-4.5,18.8-8.9c1.4-1.1,4.4-1.6,5.5,0.2c0.7,1.1,0.3,3.2,0.3,4.4c0,2.1-0.1,4.3,0.5,6.4c0.3,2.7,3.6,2.9,5.8,2.7
			c8.2-0.9,15.7-4.8,23-8.6c2.3-1.2,4.2-3.1,6.6-3.9c2.1-0.7,5.3-0.1,5.2,2.6c-0.1,3.3-3.6,5.5-6.1,7.1c-7,3.9-14.5,7.2-22.2,9.6
			c-5.1,1.4-11.2,2.1-15.8-1c-3-2-4.2-5.6-5.6-8.8c-8,3.7-16.2,7.8-25.1,8.3c-6.1-0.2-12.3-2.7-16.5-7.3c-1.8-2.5-3.6,1.1-5.7,1.4
			c-2.7,0.8-4.3-3.6-6.9-1.8c-8.3,4.5-17.1,7.8-25.6,11.9c0.9,6.5,1.2,13,1.2,19.5c0.2,18.2-2.4,38.9-15.8,52.5
			c-6.3,6.2-18.3,6.5-23.6-1.1c-2.2-3.1-3.9-5.9-4.9-9.7c-4.7-17.8,1.9-38,14-51.4c2.3-2.5,4.7-4.9,7.5-6.9
			c3.9-2.9,8.1-5.3,12.1-7.9c-0.2-2.9-0.3-5.9-0.4-8.8c0,0.9-4.7,2.6-5.4,2.8c-1.6,0.5-3.3,1-4.9,0.1c-3.2-1.9-3.1-8.8-2.3-11.8
			c0.6-2.1,2.9-3.2,4.9-2.5C160.1,122.3,160.8,124.1,161.7,125.6z M140.9,207.3c1.6,4.2,5.4,9.2,10.5,8c5.2-1.6,8.6-6.4,11.1-10.9
			c2.8-5.9,5.3-12.1,6.1-18.7c1.6-11.8,1.3-23.7,0-35.4C147.2,159.3,135.2,185.1,140.9,207.3z"/>
	    </defs>
	    <clipPath id="SVGID_2_">
		    <use xlink:href="#SVGID_1_"  style="overflow:visible;"/>
	    </clipPath>
	</g>
	<g class="st0 feat">
        <polyline class="st1" points="235.5,40 218.3,41.5 203.2,43 190.7,44.5 180.2,46.7 165.1,49.9 150.9,55.2 136.9,59.4 127.9,63.2 
	    127.3,63.5 126.6,63.7 125,64.8 112,70.4 87.8,81.9 75.4,86.1 65.8,90.2 59.9,92 53.9,93.1 49,92.9 43.2,92.6 38.3,89.6 36.5,86 
	    36.5,83.1 37.3,78.9 38.8,76.1 40.9,73.1 44.3,69.9 48.7,67.6 53.9,65.9 59.8,64.7 64.7,65.3 70.1,66.8 75.7,68.9 83.1,73 88.8,78 
	    95.7,85.5 101.7,95.1 105.1,101.5 107.4,107.3 111.9,120.2 114.3,130.6 116.2,143.5 119,161.2 119.7,180 118,200.9 122.4,144.4 
	    120.2,131.2 121.3,119.5 122.5,104.4 123.7,58.5 "/>
        <polyline class="st1" points="72,141.2 85.6,136.8 112.8,127.4 147,120.3 "/>
        <polyline class="st1" points="156,119.8 157.5,129.3 158,133 163.7,129.8 168.8,123 170.3,134.3 172.3,148.7 173.7,156.5 
	    173.7,165.8 173,176.2 172.8,185.2 171.2,193.8 167.2,203 163.2,211.7 156,217.3 148.7,219.5 141.5,216 137.2,207.8 135.3,199 
	    136.8,184.7 141.2,172.2 149.5,159.8 158.2,151.8 167.7,145.5 185.8,137.5 203.3,130.2 209,134.2 213.3,128.8 211.7,124.5 
	    204.3,127 215.7,129.2 217.5,133.3 222,136.5 227,137.7 231.7,137.8 237,137.5 244.3,135 252.7,131.7 259,128.3 261.8,124.3 
	    260.8,134.3 258.7,135.2 263.8,139.7 268,142 275.7,140 285.7,137.2 306.8,124.7 "/>
        <polyline class="st1" points="334.9,126.8 330.2,125.3 328,123.9 327.3,125.5 324.2,126.6 322.7,130.5 323.4,134.8 325.3,137 
        328.1,138.6 331.6,135 331.4,130.5 334.8,132.4 342.7,122.3 352.6,109.7 361.7,97.3 370.8,81 375.3,70.3 377.3,59.7 373,52.1 
	    367.7,51.6 361,54 353.3,61.1 348,69.6 344.9,75.2 338.6,89.7 335.4,103.5 333,121.4 332.2,144.6 334,161.9 338.1,170.6 
	    344.1,173.7 356,170.1 366.4,160.9 375.1,152.2 385.5,136.2 387.1,129 391.1,122.8 397.6,122.5 391.4,134.2 397.3,135.6 404.2,135 
	    412.4,132.6 421.3,129.8 425.6,127.1 425.7,134.3 427.6,140.7 428.4,143.8 432.9,135 433.5,127.4 435.5,124.9 439.5,129.6 
	    449.3,131.8 456.9,132 468.3,130.1 481.3,126 "/>
	</g>
</g>
<g class="dot">
    <path d="M261.1,108.1c2.5-1,6.2,0.6,5.9,3.6c-0.2,3.3-4.3,5.6-7,3.7c-2.2-1.6-2-5.2,0.2-6.8   C260.5,108.4,260.8,108.2,261.1,108.1z"/>
</g>
<circle cx="313" cy="130" r="2.5" fill="#000"/>
</svg>